<svg width="51" height="60" xmlns="http://www.w3.org/2000/svg">

 <g>
  <title>background</title>
  <rect fill="none" id="canvas_background" height="402" width="582" y="-1" x="-1"/>
 </g>
 <g>
  <title>Layer 1</title>
  <path id="svg_1" fill="#ffffff" d="m43.289,26.29c0.37,-0.37 1.05,-0.37 1.42,0c0.18,0.19 0.29,0.45 0.29,0.71c0,0.26 -0.11,0.52 -0.29,0.71c-0.19,0.18 -0.45,0.29 -0.71,0.29c-0.26,0 -0.52,-0.11 -0.71,-0.29c-0.18,-0.19 -0.29,-0.45 -0.29,-0.71c0,-0.26 0.11,-0.52 0.29,-0.71zm0.71,3.71c0.55,0 1,0.45 1,1c0,0.55 -0.45,1 -1,1c-0.55,0 -1,-0.45 -1,-1c0,-0.55 0.45,-1 1,-1zm0,4c0.55,0 1,0.45 1,1c0,0.55 -0.45,1 -1,1c-0.55,0 -1,-0.45 -1,-1c0,-0.55 0.45,-1 1,-1zm0.71,8.29c0.18,0.19 0.29,0.44 0.29,0.71c0,0.27 -0.11,0.52 -0.29,0.71c-0.19,0.18 -0.44,0.29 -0.71,0.29c-0.27,0 -0.52,-0.11 -0.71,-0.29c-0.18,-0.19 -0.29,-0.44 -0.29,-0.71c0,-0.27 0.11,-0.52 0.29,-0.71c0.37,-0.37 1.05,-0.37 1.42,0zm-0.71,-4.29c0.55,0 1,0.45 1,1c0,0.55 -0.45,1 -1,1c-0.55,0 -1,-0.45 -1,-1c0,-0.55 0.45,-1 1,-1zm-4.67,-11c0,-0.55 0.45,-1 1,-1c0.56,0 1,0.45 1,1c0,0.55 -0.44,1 -1,1c-0.55,0 -1,-0.45 -1,-1zm0.96,17c-0.56,0 -1,-0.45 -1,-1c0,-0.55 0.44,-1 1,-1c0.55,0 1,0.45 1,1c0,0.55 -0.45,1 -1,1zm-4.62,-17c0,-0.55 0.44,-1 1,-1c0.55,0 1,0.45 1,1c0,0.55 -0.45,1 -1,1c-0.56,0 -1,-0.45 -1,-1zm0.9,17c-0.55,0 -1,-0.45 -1,-1c0,-0.55 0.45,-1 1,-1c0.55,0 1,0.45 1,1c0,0.55 -0.45,1 -1,1zm-4.57,-17c0,-0.55 0.45,-1 1,-1c0.55,0 1,0.45 1,1c0,0.55 -0.45,1 -1,1c-0.55,0 -1,-0.45 -1,-1zm0.86,17c-0.56,0 -1,-0.45 -1,-1c0,-0.55 0.44,-1 1,-1c0.55,0 1,0.45 1,1c0,0.55 -0.45,1 -1,1zm-4.53,-17c0,-0.55 0.45,-1 1,-1c0.56,0 1,0.45 1,1c0,0.55 -0.44,1 -1,1c-0.55,0 -1,-0.45 -1,-1zm0.81,17c-0.55,0 -1,-0.45 -1,-1c0,-0.55 0.45,-1 1,-1c0.56,0 1,0.45 1,1c0,0.55 -0.44,1 -1,1zm-4.47,-17c0,-0.55 0.44,-1 1,-1c0.55,0 1,0.45 1,1c0,0.55 -0.45,1 -1,1c-0.56,0 -1,-0.45 -1,-1zm0.76,17c-0.55,0 -1,-0.45 -1,-1c0,-0.55 0.45,-1 1,-1c0.55,0 1,0.45 1,1c0,0.55 -0.45,1 -1,1zm-4.14,-16.29c-0.18,-0.19 -0.29,-0.45 -0.29,-0.71c0,-0.26 0.11,-0.52 0.29,-0.71c0.37,-0.37 1.05,-0.37 1.42,0c0.18,0.19 0.29,0.45 0.29,0.71c0,0.26 -0.1,0.52 -0.29,0.71c-0.19,0.18 -0.45,0.29 -0.71,0.29c-0.26,0 -0.52,-0.11 -0.71,-0.29zm0.42,16.29c-0.55,0 -1,-0.45 -1,-1c0,-0.55 0.45,-1 1,-1c0.56,0 1,0.45 1,1c0,0.55 -0.44,1 -1,1zm20.29,16c0,0 -26,0 -26,0c-0.552,0 -1,-0.448 -1,-1c0,-0.552 0.448,-1 1,-1c0,0 26,0 26,0c3.86,0 7,-3.14 7,-7c0,0 0,-28.334 0,-28.334c0,-1.504 -0.497,-2.996 -1.4,-4.199c0,0 -4.4,-5.867 -4.4,-5.867c-0.129,-0.173 -0.2,-0.384 -0.2,-0.6c0,0 0,-2 0,-2c0,0 -26,0 -26,0c0,0 0,2 0,2c0,0.234 -0.082,0.46 -0.231,0.64c0,0 -0.501,0.6 -0.501,0.6c-0.197,0.237 -0.482,0.36 -0.768,0.36c-0.226,0 -0.453,-0.076 -0.64,-0.232c-0.424,-0.353 -0.481,-0.984 -0.128,-1.408c0,0 0.268,-0.322 0.268,-0.322c0,0 0,-1.739 0,-1.739c-2.279,-0.465 -4,-2.485 -4,-4.899c0,-2.757 2.244,-5 5,-5c0,0 28,0 28,0c2.757,0 5,2.243 5,5c0,2.414 -1.72,4.434 -4,4.899c0,0 0,1.767 0,1.767c0,0 4.2,5.601 4.2,5.601c1.161,1.547 1.8,3.465 1.8,5.399c0,0 0,28.334 0,28.334c0,4.962 -4.037,9 -9,9zm4.816,-54c0,0 -19.816,0 -19.816,0c-0.552,0 -1,-0.448 -1,-1c0,-0.552 0.448,-1 1,-1c0,0 19.816,0 19.816,0c-0.414,-1.162 -1.514,-2 -2.816,-2c0,0 -28,0 -28,0c-1.302,0 -2.401,0.838 -2.815,2c0,0 5.815,0 5.815,0c0.553,0 1,0.448 1,1c0,0.552 -0.447,1 -1,1c0,0 -5.815,0 -5.815,0c0.414,1.161 1.513,2 2.815,2c0,0 28,0 28,0c1.302,0 2.402,-0.839 2.816,-2zm-28.106,36.3c0.18,0.18 0.29,0.44 0.29,0.7c0,0.26 -0.11,0.52 -0.29,0.71c-0.19,0.18 -0.44,0.29 -0.71,0.29c-0.26,0 -0.52,-0.11 -0.71,-0.29c-0.18,-0.19 -0.29,-0.45 -0.29,-0.71c0,-0.27 0.11,-0.52 0.29,-0.71c0.38,-0.37 1.05,-0.37 1.42,0.01zm0.43,-16.729c0,4.298 -1.754,7.616 -4.841,9.218c0,0 0,2.988 0,2.988c0,0.669 0.026,1.346 0.08,2.012c0,0 1.144,14.305 1.144,14.305c0.122,1.517 -0.401,3.028 -1.433,4.146c-1.033,1.119 -2.497,1.76 -4.019,1.76c-1.522,0 -2.987,-0.641 -4.019,-1.76c-1.033,-1.118 -1.556,-2.629 -1.434,-4.146c0,0 1.145,-14.305 1.145,-14.305c0.053,-0.666 0.08,-1.343 0.08,-2.012c0,0 0,-2.988 0,-2.988c-3.088,-1.602 -4.843,-4.92 -4.843,-9.218c0,-6.406 3.879,-13.571 9.071,-13.571c5.191,0 9.069,7.165 9.069,13.571zm-9.069,-11.571c-3.569,0 -7.071,5.731 -7.071,11.571c0,3.731 1.543,6.524 4.232,7.662c0.006,0.003 0.011,0.008 0.017,0.01c0.358,0.151 0.737,0.274 1.128,0.362c0.539,0.122 0.876,0.658 0.754,1.197c-0.105,0.464 -0.517,0.779 -0.974,0.779c-0.073,0 -0.148,-0.008 -0.222,-0.025c-0.032,-0.008 -0.061,-0.022 -0.092,-0.03c0,0 0,2.251 0,2.251c0,0.722 -0.03,1.452 -0.087,2.171c0,0 -1.145,14.305 -1.145,14.305c-0.077,0.976 0.245,1.911 0.91,2.631c0.664,0.719 1.57,1.116 2.55,1.116c0.979,0 1.885,-0.397 2.549,-1.116c0.665,-0.72 0.988,-1.655 0.91,-2.631c0,0 -1.144,-14.305 -1.144,-14.305c-0.058,-0.719 -0.087,-1.449 -0.087,-2.171c0,0 0,-2.248 0,-2.248c-0.02,0.005 -0.038,0.014 -0.057,0.018c-0.076,0.017 -0.151,0.026 -0.226,0.026c-0.455,0 -0.866,-0.313 -0.973,-0.776c-0.124,-0.538 0.212,-1.075 0.75,-1.199c0.379,-0.087 0.748,-0.207 1.1,-0.355c0.006,-0.002 0.01,-0.007 0.016,-0.01c2.689,-1.137 4.231,-3.93 4.231,-7.662c0,-5.84 -3.501,-11.571 -7.069,-11.571z"/>
 </g>
</svg>