<?xml version="1.0" ?><svg id="Layer_1" style="enable-background:new 0 0 512 512;" version="1.1" viewBox="0 0 512 512" xml:space="preserve" xmlns="http://www.w3.org/2000/svg" xmlns:xlink="http://www.w3.org/1999/xlink"><g><path d="M166.698,93.22c19.435-4.225,38.486,0.922,57.461,7.298   c47.551-18.053,85.73-17.515,118.608-3.534c67.601,28.807,85.193,72.978,71.98,142.269c51.161,47.781,35.03,41.098,15.825,113.078   c-12.445,30.804-33.801,52.775-63.145,66.91c-29.038-3.457-58.69-5.224-90.57-2.074c-22.124,8.373-43.864,9.372-65.527,7.144   c-69.598-19.281-105.934-50.086-114.384-121.682c-59.305-51.546-32.264-87.651,14.826-122.296   C92.26,132.705,119.838,121.49,166.698,93.22L166.698,93.22z" style="fill-rule:evenodd;clip-rule:evenodd;fill:#6F7075;"/><path d="M259.803,89.994c31.649-6.299,58.767-3.303,82.964,6.991   c67.601,28.807,85.193,72.978,71.98,142.269c40.253,37.641,38.794,41.482,26.963,76.666c-10.831-8.911-18.513-24.122-33.954-51.008   c-9.679-16.9-7.989,2.151-36.719-6.299c-27.04-7.989-7.452-53.774-13.674-72.825c-9.833-29.729-55.386-28.961-85.653-65.988   C266.178,110.274,261.185,100.595,259.803,89.994L259.803,89.994z" style="fill-rule:evenodd;clip-rule:evenodd;fill:#98999C;"/><path d="M425.963,362.472c-12.752,25.504-32.495,44.171-58.536,56.77   c-29.038-3.457-58.69-5.224-90.57-2.074c-22.124,8.373-43.864,9.372-65.527,7.144c-69.598-19.281-105.934-50.086-114.384-121.682   c-59.305-51.546-32.264-87.651,14.826-122.296c-15.518-37.872-1.23-52.698,28.884-71.442   c-19.819,40.407-16.362,66.295,14.519,78.97c15.902,7.221,20.664,9.448,10.371,22.661c-19.435,23.66-26.119,46.783,7.989,42.02   c14.058-1.997,18.667,5.224,10.755,18.36c-54.158,83.809,5.223,57.384,63.76,11.215c23.583-19.358,33.263-15.824,26.042,11.677   c-10.524,48.396,6.683,60.457,23.968,39.101c6.376-7.144,12.829-12.368,15.133,6.914c7.682,53.85,25.581,77.511,62.915,29.038   c7.451-10.524,11.83-18.283,13.136-4.225C390.318,388.359,407.295,379.295,425.963,362.472L425.963,362.472z" style="fill-rule:evenodd;clip-rule:evenodd;fill:#494A4F;"/><path d="M178.681,124.947c15.441-4.763,31.957-2.074,48.78,1.997   c8.143,3.687,12.445,8.68,6.837,17.284c-13.29,14.98-28.115,23.353-44.324,25.658c-13.904-1.46-20.434-9.142-23.891-19.282   C164.931,141.386,169.847,132.935,178.681,124.947L178.681,124.947z M221.546,189.782c20.664-15.287,37.027-5.3,21.894,15.287   C221.239,226.962,189.974,219.127,221.546,189.782L221.546,189.782z M375.185,324.907c-9.218,24.736-19.281,29.191-29.959,16.516   C314.421,280.506,389.32,269.136,375.185,324.907L375.185,324.907z" style="fill-rule:evenodd;clip-rule:evenodd;fill:#2E2F34;"/></g></svg>