<?xml version="1.0" ?><svg data-name="Vehicles 2" height="60" id="Vehicles_2" viewBox="0 0 60 60" width="60" xmlns="http://www.w3.org/2000/svg"><title/><path d="M55.906,31.8909H30.33329A10.33333,10.33333,0,0,1,20,21.5576V11.8909h6.89889A33.63077,33.63077,0,0,1,53,24.3142l.38369.4722A11.26711,11.26711,0,0,1,55.906,31.8909Z" style="fill:#96d7ff"/><path d="M53,27.31419l.38367.47217a11.26164,11.26164,0,0,1,2.11,4.10455H55.906a11.26693,11.26693,0,0,0-2.52234-7.10455L53,24.31419A33.63083,33.63083,0,0,0,26.89886,11.89091H20v3h6.89886A33.63083,33.63083,0,0,1,53,27.31419Z" style="fill:#2c4b75;opacity:0.2"/><path d="M32.86884,31.89091h4.24261c4.82648-2.101,8.34879-6.02686,11.79346-11.79346q-1.14569-.9917-2.37317-1.86945A31.71645,31.71645,0,0,1,32.86884,31.89091Z" style="fill:#fff;opacity:0.5"/><path d="M26.89886,11.89091H20V21.5576a10.32642,10.32642,0,0,0,8.75867,10.20087c8.16678-4.70215,13.60349-9.72641,15.20331-15.20331A33.61354,33.61354,0,0,0,26.89886,11.89091Z" style="fill:#fff;opacity:0.5"/><path d="M55.90576,32.89111H30.3335A11.34607,11.34607,0,0,1,19,21.55762v-9.6665a1,1,0,0,1,1-1h6.89893a34.49079,34.49079,0,0,1,26.877,12.792l.38428.47314a12.30478,12.30478,0,0,1,2.74561,7.73486A1,1,0,0,1,55.90576,32.89111ZM21,12.89111v8.6665a9.3441,9.3441,0,0,0,9.3335,9.3335H54.85645a10.30336,10.30336,0,0,0-2.249-5.47412l-.38379-.47266A32.49975,32.49975,0,0,0,26.89893,12.89111Z" style="fill:#6d6daa"/><path d="M43,46.89111H31a1,1,0,0,1,0-2H43a1,1,0,0,1,0,2Z" style="fill:#6d6daa"/><path d="M49,47.8909H45a2,2,0,0,1-2-2h0a2,2,0,0,1,2-2h4a2,2,0,0,1,2,2h0A2,2,0,0,1,49,47.8909Z" style="fill:#9eb2cc"/><path d="M29,47.8909H23v-4h6a2,2,0,0,1,2,2h0A2,2,0,0,1,29,47.8909Z" style="fill:#9eb2cc"/><path d="M10.5,41.8909H7.4375A6.43754,6.43754,0,0,1,1,35.4534V30.2576a4.36665,4.36665,0,0,1,4.3667-4.3667h0" style="fill:#9eb2cc"/><path d="M7.43749,38.89091A6.43754,6.43754,0,0,1,1,32.45341v3a6.43754,6.43754,0,0,0,6.43749,6.4375H10.5l-.96246-3Z" style="fill:#2c4b75;opacity:0.2"/><path d="M5.3667,28.89091v-3A4.36663,4.36663,0,0,0,1,30.25761v3A4.36663,4.36663,0,0,1,5.3667,28.89091Z" style="fill:#fff;opacity:0.5"/><path d="M54.68749,37.8909H26.25a3.25,3.25,0,0,0-3.25,3.25v6.75H20.81759A5.67159,5.67159,0,0,1,17.521,46.8344L8.0259,40.0522A7.22559,7.22559,0,0,1,5,34.1724V31.8909H57.31249A1.68748,1.68748,0,0,1,59,33.5784h0A4.31254,4.31254,0,0,1,54.68749,37.8909Z" style="fill:#c9c1f5"/><path d="M17.521,43.83439,8.02588,37.05217a7.21979,7.21979,0,0,1-2.98267-5.16125H5v2.28149a7.2256,7.2256,0,0,0,3.02588,5.87976L17.521,46.83439a5.67184,5.67184,0,0,0,3.29657,1.05652H23v-3H20.81757A5.67184,5.67184,0,0,1,17.521,43.83439Z" style="fill:#2c4b75;opacity:0.2"/><path d="M54.68749,34.89091H26.25a3.25,3.25,0,0,0-3.25,3.25v3a3.25,3.25,0,0,1,3.25-3.25H54.68749A4.31256,4.31256,0,0,0,59,33.57841a1.6754,1.6754,0,0,0-.4425-1.13055A4.30024,4.30024,0,0,1,54.68749,34.89091Z" style="fill:#2c4b75;opacity:0.2"/><path d="M23,21.55765V11.65421a2.65205,2.65205,0,0,0-3.544-2.49762h-.00012A21.14107,21.14107,0,0,0,6.13922,23.61881l-.43256,1.62195A20.93343,20.93343,0,0,0,5,30.6337v1.2572H33.33331A10.33337,10.33337,0,0,1,23,21.55765Z" style="fill:#c9c1f5"/><path d="M5.70667,28.24077l.43256-1.62195A21.14107,21.14107,0,0,1,19.45587,12.1566H19.456A2.65205,2.65205,0,0,1,23,14.65422v-3A2.65205,2.65205,0,0,0,19.456,9.1566h-.00012A21.14107,21.14107,0,0,0,6.13922,23.61882l-.43256,1.62195A20.93343,20.93343,0,0,0,5,30.63371v1.2572h.08167A20.92944,20.92944,0,0,1,5.70667,28.24077Z" style="fill:#fff;opacity:0.5"/><path d="M49,48.89111H45a3,3,0,0,1,0-6h4a3,3,0,0,1,0,6Zm-4-4a1,1,0,0,0,0,2h4a1,1,0,0,0,0-2Z" style="fill:#6d6daa"/><path d="M29,48.89111H23a1,1,0,0,1-1-1v-4a1,1,0,0,1,1-1h6a3,3,0,0,1,0,6Zm-5-2h5a1,1,0,0,0,0-2H24Z" style="fill:#6d6daa"/><path d="M10.5,42.89111H7.4375A7.44589,7.44589,0,0,1,0,35.45361v-5.1958a5.37306,5.37306,0,0,1,5.3667-5.3667,1,1,0,1,1,0,2A3.37046,3.37046,0,0,0,2,30.25781v5.1958a5.44392,5.44392,0,0,0,5.4375,5.4375H10.5a1,1,0,0,1,0,2Z" style="fill:#6d6daa"/><path d="M23,48.89111H20.81738a6.63391,6.63391,0,0,1-3.87744-1.24268L7.44482,40.86621A8.24267,8.24267,0,0,1,4,34.17236V31.89111a1,1,0,0,1,1-1H57.3125A2.69049,2.69049,0,0,1,60,33.57861a5.31868,5.31868,0,0,1-5.3125,5.3125H26.25a2.25246,2.25246,0,0,0-2.25,2.25v6.75A1,1,0,0,1,23,48.89111Zm-17-16v1.28125a6.23764,6.23764,0,0,0,2.60693,5.06592l9.49512,6.78223a4.6439,4.6439,0,0,0,2.71533.87061H22v-5.75a4.25507,4.25507,0,0,1,4.25-4.25H54.6875A3.31607,3.31607,0,0,0,58,33.57861a.68851.68851,0,0,0-.6875-.6875Z" style="fill:#6d6daa"/><path d="M33.3335,32.89111H5a1,1,0,0,1-1-1V30.63379a21.954,21.954,0,0,1,.74023-5.65039l.43262-1.62256a22.141,22.141,0,0,1,13.94678-15.146A3.652,3.652,0,0,1,24,11.6543v9.90332a9.3441,9.3441,0,0,0,9.3335,9.3335,1,1,0,0,1,0,2ZM6,30.89111H26.91064A11.33,11.33,0,0,1,22,21.55762V11.6543a1.65186,1.65186,0,0,0-2.20752-1.55566,20.13932,20.13932,0,0,0-12.687,13.77783l-.43262,1.62207A19.9596,19.9596,0,0,0,6,30.63379Z" style="fill:#6d6daa"/></svg>